HIERARCHY
ROOT Pelvis
{
	OFFSET 0.000000 0.000000 0.000000
	CHANNELS 6 Xposition Yposition Zposition Zrotation Yrotation Xrotation 
	JOINT Left_hip
	{
		OFFSET 0.067986 -0.089946 -0.007639
		CHANNELS 3 Zrotation Yrotation Xrotation
		JOINT Left_knee
		{
			OFFSET 0.036308 -0.388288 -0.004016
			CHANNELS 3 Zrotation Yrotation Xrotation
			JOINT Left_ankle
			{
				OFFSET -0.012264 -0.413250 -0.042878
				CHANNELS 3 Zrotation Yrotation Xrotation
				JOINT Left_foot
				{
					OFFSET 0.024043 -0.058563 0.118570
					CHANNELS 3 Zrotation Yrotation Xrotation
					End Site
					{
						OFFSET 0.000000 0.000000 0.000000
					}
				}
			}
		}
	}
	JOINT Right_hip
	{
		OFFSET -0.065648 -0.089374 -0.003858
		CHANNELS 3 Zrotation Yrotation Xrotation
		JOINT Right_knee
		{
			OFFSET -0.042132 -0.395021 -0.006361
			CHANNELS 3 Zrotation Yrotation Xrotation
			JOINT Right_ankle
			{
				OFFSET 0.014805 -0.413264 -0.041054
				CHANNELS 3 Zrotation Yrotation Xrotation
				JOINT Right_foot
				{
					OFFSET -0.021758 -0.049013 0.121832
					CHANNELS 3 Zrotation Yrotation Xrotation
					End Site
					{
						OFFSET 0.000000 0.000000 0.000000
					}
				}
			}
		}
	}
	JOINT Spine1
	{
		OFFSET -0.002755 0.104406 -0.022277
		CHANNELS 3 Zrotation Yrotation Xrotation
		JOINT Spine2
		{
			OFFSET 0.004136 0.129393 -0.002186
			CHANNELS 3 Zrotation Yrotation Xrotation
			JOINT Spine3
			{
				OFFSET 0.001906 0.049304 0.025578
				CHANNELS 3 Zrotation Yrotation Xrotation
				JOINT Neck
				{
					OFFSET -0.004620 0.210958 -0.044063
					CHANNELS 3 Zrotation Yrotation Xrotation
					JOINT Head
					{
						OFFSET 0.003833 0.067393 0.052435
						CHANNELS 3 Zrotation Yrotation Xrotation
						End Site
						{
							OFFSET 0.000000 0.000000 0.000000
						}
					}
				}
				JOINT Left_collar
				{
					OFFSET 0.070771 0.116689 -0.037192
					CHANNELS 3 Zrotation Yrotation Xrotation
					JOINT Left_shoulder
					{
						OFFSET 0.080652 0.031596 -0.005617
						CHANNELS 3 Zrotation Yrotation Xrotation
						JOINT Left_elbow
						{
							OFFSET 0.262654 -0.015020 -0.027939
							CHANNELS 3 Zrotation Yrotation Xrotation
							JOINT Left_wrist
							{
								OFFSET 0.250438 0.010062 -0.000990
								CHANNELS 3 Zrotation Yrotation Xrotation
								JOINT Left_palm
								{
									OFFSET 0.081198 -0.010037 -0.013706
									CHANNELS 3 Zrotation Yrotation Xrotation
									End Site
									{
										OFFSET 0.000000 0.000000 0.000000
									}
								}
							}
						}
					}
				}
				JOINT Right_collar
				{
					OFFSET -0.072972 0.115556 -0.040762
					CHANNELS 3 Zrotation Yrotation Xrotation
					JOINT Right_shoulder
					{
						OFFSET -0.082917 0.031841 -0.006673
						CHANNELS 3 Zrotation Yrotation Xrotation
						JOINT Right_elbow
						{
							OFFSET -0.252882 -0.013790 -0.020410
							CHANNELS 3 Zrotation Yrotation Xrotation
							JOINT Right_wrist
							{
								OFFSET -0.255570 0.009163 -0.005138
								CHANNELS 3 Zrotation Yrotation Xrotation
								JOINT Right_palm
								{
									OFFSET -0.080804 -0.007282 -0.010415
									CHANNELS 3 Zrotation Yrotation Xrotation
									End Site
									{
										OFFSET 0.000000 0.000000 0.000000
									}
								}
							}
						}
					}
				}
			}
		}
	}
}
MOTION
Frames: 13
Frame Time: 0.100000
-0.378765 -0.160683 0.850970 13.153734 42.972705 -176.166416 2.293116 -2.344094 12.606001 -15.146971 -21.128247 34.800534 -10.029692 -10.876858 -1.079711 8.257299 16.606448 -13.346640 -5.988797 0.302583 -1.396156 7.236994 1.434023 9.482559 6.762091 1.569710 -3.952581 -5.455954 0.780706 0.148505 4.653319 0.239722 6.580400 4.999478 -3.724172 13.808084 2.357349 -0.308717 -2.385469 0.689189 12.872172 -0.466570 -12.373002 0.278533 1.494382 -13.910620 -18.056877 2.644687 -58.218779 -13.134084 28.448581 -123.368446 -72.256451 146.316254 -10.162799 -13.242462 -30.396797 -13.864865 -2.511835 -5.053306 12.695864 25.842007 -5.248238 64.343092 37.210807 33.248372 -164.374375 45.301635 -143.561702 -2.709681 7.090559 -23.499290 16.993304 10.263927 -6.027718 
-0.417049 -0.161328 0.835605 11.488665 37.258498 -177.730251 6.765137 -0.858917 1.926385 -15.366089 -8.966733 51.750454 -16.254878 -9.734779 7.394831 9.595551 16.494108 -16.883856 -6.077176 -1.730174 5.127163 8.630666 0.236155 5.524952 1.956880 1.637734 -6.024608 -2.061180 -1.464519 1.480689 5.433794 1.256642 7.757963 5.953949 -6.087091 13.507215 3.088247 -0.897609 -3.051141 -0.176733 12.644322 -2.459365 -11.437453 1.281699 1.116670 -14.592935 -20.399446 3.561776 -56.439771 -14.615961 28.341743 -126.784510 -70.721627 149.155326 -13.014728 -15.843659 -32.830828 -13.110391 -1.619698 -3.442743 13.858655 26.633915 -4.722494 62.195806 38.460945 31.872462 -163.747528 44.610745 -143.119281 -0.706198 7.597505 -25.515863 15.616295 9.360010 -4.472563 
-0.447274 -0.164349 0.818921 9.486451 34.238961 -178.760117 9.637323 1.902596 -2.484346 -5.603667 3.301690 51.553343 -9.463370 -0.094747 -0.189807 11.385342 15.746903 -11.668814 -6.306029 -3.395235 9.865990 8.147648 -0.441215 1.873783 0.808736 2.458234 -6.647679 0.672579 -4.680947 2.049237 4.498593 3.119658 8.205655 6.523240 -6.740416 13.274118 3.742246 -0.502342 -2.622372 -0.587786 12.470807 -2.966231 -10.730245 1.315813 0.736662 -14.526580 -21.603395 3.912379 -56.684158 -14.679239 28.200717 -125.674258 -69.840613 146.706085 -12.781254 -14.915439 -34.187622 -13.597625 -2.054343 -3.727739 15.063573 26.892702 -3.360614 64.189341 38.652950 32.997981 -163.882392 44.391050 -143.107536 -1.686179 7.372019 -25.514051 16.576127 10.197125 -7.376509 
-0.468918 -0.161768 0.800301 6.772602 31.202866 -179.043379 8.745259 1.481574 -3.313124 -6.663686 1.862777 34.167191 -8.748484 -1.458571 -4.210882 13.223651 15.700971 -7.653420 -7.438215 -4.171946 12.284722 7.632565 -1.525896 -0.262989 1.870775 1.149445 -8.105813 0.388978 -4.022769 3.025058 4.075419 4.025405 8.098404 5.969990 -6.509005 12.822476 3.460484 -0.015112 -2.600182 -0.106723 13.739920 -2.484448 -11.256195 0.492358 1.569401 -14.865421 -20.797258 3.759374 -56.288023 -13.740559 28.551799 -127.293436 -69.143870 148.862919 -11.506054 -15.327252 -33.478912 -12.924511 -1.961146 -4.636497 15.343828 26.620500 -2.973673 65.217465 38.499373 33.957752 -164.623250 44.651414 -143.777686 -2.572299 8.316578 -25.159176 15.891239 10.052065 -7.659626 
-0.481385 -0.157299 0.781286 4.870958 27.221534 -178.339798 7.340658 0.986836 -3.720746 -6.036820 0.045311 12.755071 -9.423704 -1.944123 -3.827364 15.817078 15.309266 -4.520002 -8.165241 -4.886347 13.387852 7.407375 -3.402229 -1.140520 2.215375 -0.357801 -9.906211 1.049949 -3.674089 4.260417 4.186539 4.418166 8.269898 5.360054 -6.253915 12.706931 3.383111 0.296424 -2.559751 -0.011639 15.020955 -2.330319 -11.713376 0.315554 1.574766 -15.523435 -20.043302 3.477192 -56.646883 -13.050940 29.056939 -127.686502 -69.949336 149.345485 -11.014245 -16.071376 -32.678793 -11.667110 -1.645885 -5.558493 15.002775 26.087364 -2.827606 63.975263 38.869651 33.445005 -164.469433 45.231461 -143.724147 -2.854943 9.686515 -24.621182 14.468784 9.345823 -7.551039 
-0.487839 -0.152205 0.760419 3.933195 22.963880 -177.293773 5.412111 1.611471 -5.171951 -5.331280 2.932923 -1.835434 -8.677244 -1.049245 -3.309212 16.313604 14.887568 -2.232337 -8.064482 -5.808032 14.224204 6.906837 -5.889139 -1.256398 1.807755 -1.417601 -11.253286 2.645548 -3.913660 4.910947 4.194072 4.813104 9.205699 5.089936 -6.305679 12.492580 3.509553 0.466325 -2.472225 -0.154240 15.459394 -1.656934 -11.395195 0.428937 0.879228 -15.558772 -20.079845 3.317379 -57.016802 -13.117929 29.383574 -127.625116 -70.085244 149.255796 -11.070385 -16.699580 -32.110389 -10.445789 -1.324174 -5.976932 14.544579 25.424515 -2.251620 63.598256 37.802783 32.944016 -163.948610 45.959108 -143.568469 -2.587350 10.582966 -25.205326 13.180183 8.870403 -7.469428 
-0.492564 -0.142174 0.733240 4.797406 20.258117 -176.209723 4.509138 3.275452 -8.169406 -5.585700 10.049499 -0.682568 -6.878465 1.459383 -3.315826 14.857741 14.673386 -2.272812 -7.175808 -6.891767 15.720753 6.702301 -7.197981 -0.738213 0.554899 -1.953189 -12.918131 4.049881 -4.118416 4.942947 4.475257 5.291247 10.219709 5.253249 -6.245266 11.861418 3.652144 0.539152 -1.954700 -0.649360 15.868767 -1.196090 -11.285339 1.872139 1.115556 -15.786108 -19.248850 3.103883 -56.541586 -13.483819 28.633183 -128.212066 -69.668239 150.613371 -10.939220 -16.605750 -30.842003 -9.750341 -1.262291 -5.500316 15.449711 23.559481 -1.476485 61.543101 35.861432 30.835646 -161.838168 49.590040 -141.818586 -2.737154 10.711094 -23.697873 12.736147 8.666067 -7.374688 
-0.494707 -0.129222 0.691979 6.493737 19.885106 -175.821733 4.628919 2.873567 -5.843717 -5.479843 9.631412 -0.694799 -6.742270 2.940014 0.237386 13.806404 13.300422 -3.442859 -7.013733 -7.297354 17.816949 6.527767 -6.696668 1.587732 -0.391349 -2.260601 -14.249323 5.611440 -4.112979 4.829421 3.849184 5.633532 9.500965 5.391687 -5.937540 12.666510 3.669347 0.596019 -1.594016 -1.112972 17.952514 0.004502 -11.252376 4.479584 1.950014 -16.948002 -17.967077 2.953623 -55.165053 -14.091021 28.562014 -127.830737 -69.459136 150.855011 -11.209565 -16.706102 -29.806944 -9.775868 -1.419295 -4.620638 18.245437 20.624897 0.261283 56.381785 32.284947 26.538092 -154.621435 56.558473 -134.695592 -0.981785 10.521536 -18.823031 12.446835 8.444899 -7.327981 
-0.487783 -0.122318 0.638645 7.039084 19.550967 -176.600563 3.423538 1.657464 -2.780760 -5.364358 7.721400 1.366138 -4.584776 4.307215 0.267661 11.501969 12.495112 -4.919137 -8.648130 -7.158943 18.325272 5.044385 -5.229647 8.601177 2.521789 -3.850647 -12.789610 2.808778 -1.209548 2.428841 2.535904 5.523427 8.387076 5.130249 -5.478377 13.146267 3.080114 0.169348 -0.632163 -2.144332 20.116673 0.671078 -11.453692 7.858808 4.167573 -18.276539 -16.418343 3.174103 -54.247780 -15.813390 28.750048 -124.831939 -68.510031 148.528735 -10.938038 -16.495587 -28.430731 -10.077794 -2.000889 -3.066066 21.489141 16.159839 1.819816 50.970183 25.825657 22.401301 -137.165083 65.021376 -119.002777 0.718995 9.677258 -12.153186 12.633073 8.666863 -7.787549 
-0.475279 -0.114327 0.583193 7.351709 17.996316 -177.681931 2.085896 1.806271 2.398850 -6.653508 4.850611 0.797126 -0.790778 5.029099 -3.186074 8.111840 11.677591 -5.748153 -11.068683 -7.220499 15.226798 3.769521 -4.140317 22.109568 7.810104 -5.697112 -7.757918 -2.668201 3.238902 -2.395975 1.079566 4.458760 7.026404 4.989442 -4.474833 13.061396 2.446013 -0.444482 0.535743 -2.831208 21.263157 1.437632 -11.243604 11.213236 6.633350 -18.264748 -14.416948 3.179115 -53.943364 -18.240712 28.611076 -124.160083 -67.340937 147.822301 -10.186901 -15.998544 -29.206307 -9.942013 -2.649340 -1.097145 23.165550 11.265541 2.660543 46.732032 18.773657 19.043717 -97.319808 70.978850 -82.704217 3.395367 8.000484 -5.797523 12.464308 8.812053 -8.067812 
-0.460930 -0.102762 0.535393 6.961523 15.609049 179.811164 0.109584 2.340641 10.936693 -7.146489 -0.288827 -3.979811 2.997498 6.266874 -5.008957 4.777323 11.140814 -6.448797 -13.467761 -6.946507 7.860835 2.098703 -3.765576 41.886695 12.744889 -10.510826 2.284889 -8.256943 7.862039 -8.757764 -0.340283 2.343806 7.482570 4.587399 -2.517809 13.449086 1.690294 -1.035324 1.401830 -3.441533 21.779074 1.702675 -11.153429 14.183847 8.940682 -18.117360 -12.955510 3.402366 -51.674932 -21.049225 27.819153 -123.682749 -66.316385 147.326322 -10.333415 -15.475711 -28.246087 -9.165504 -3.403126 -0.401333 24.990401 8.560482 3.573653 43.232805 13.265153 16.846809 -46.991018 63.594137 -37.745751 6.925659 5.363249 1.550945 11.560924 8.571497 -8.510469 
-0.450707 -0.096693 0.496814 7.163046 9.669868 178.122825 -0.612802 1.944074 15.647306 -6.195803 -5.578211 -4.455450 3.796332 7.541866 -5.914351 2.537100 8.973833 -7.186946 -10.931781 -5.406945 1.450172 2.134218 -3.388562 52.616561 10.815272 -11.845710 -0.217128 -6.348119 9.237299 -7.572405 -0.385216 -0.339957 9.012145 4.482205 -1.716589 13.264188 1.534843 -1.878237 2.137080 -4.212152 22.400418 2.193620 -11.559272 15.551757 10.254679 -18.740175 -12.173755 3.708163 -50.928769 -22.526428 28.579731 -122.953572 -67.248243 147.465988 -10.061193 -15.356895 -29.701824 -5.850091 -2.503563 1.862827 26.974868 7.770388 4.800984 39.763695 10.172877 14.449508 -19.890686 42.672171 -16.832205 9.614198 2.484141 3.825711 8.369002 6.778924 -6.964872 
-0.443387 -0.091299 0.462956 7.005108 1.990373 177.870393 -0.842177 0.359677 17.133330 -5.464195 -10.464552 -2.690691 3.807262 8.105835 -7.282117 0.493694 6.121836 -6.558109 -7.089330 -3.360363 -4.107539 1.449631 -3.558795 48.316674 8.139910 -12.270131 -4.794202 -4.167959 8.610872 -3.275962 -0.267767 -2.129736 10.160621 4.513961 -1.165832 12.521773 2.104398 -2.098202 2.467753 -4.910306 21.846021 2.928228 -10.464747 15.045448 10.162126 -17.940004 -11.922403 3.942439 -52.833848 -23.244074 30.623766 -124.356971 -68.842015 151.297770 -10.963771 -14.590125 -33.508321 -2.588439 -1.615777 4.639577 27.572846 8.311005 6.873138 39.229981 8.239697 11.522381 -8.668454 15.293569 -12.764012 13.184239 -2.343720 1.796965 5.470233 5.246187 -5.752802 
